<?xml version="1.0" encoding="UTF-8" standalone="no"?>
<svg xmlns="http://www.w3.org/2000/svg" xmlns:xlink="http://www.w3.org/1999/xlink" width="64" height="64" viewBox="0 0 64 64">
  <defs>
    <linearGradient id="gradient" x1="0%" y1="0%" x2="100%" y2="100%">
      <stop offset="0%" style="stop-color:#2563eb;stop-opacity:1" />
      <stop offset="100%" style="stop-color:#1e40af;stop-opacity:1" />
    </linearGradient>
  </defs>
  <circle cx="32" cy="32" r="30" fill="url(#gradient)" />
  <g fill="#ffffff">
    <!-- Infinity symbol for continuous integration/deployment -->
    <path d="M44,32c0,3.3-2.7,6-6,6c-2.4,0-4.5-1.4-5.5-3.5c-1,2.1-3.1,3.5-5.5,3.5c-3.3,0-6-2.7-6-6s2.7-6,6-6c2.4,0,4.5,1.4,5.5,3.5 c1-2.1,3.1-3.5,5.5-3.5C41.3,26,44,28.7,44,32z M38,32c0-1.7-1.3-3-3-3s-3,1.3-3,3s1.3,3,3,3S38,33.7,38,32z M32,32 c0-1.7-1.3-3-3-3s-3,1.3-3,3s1.3,3,3,3S32,33.7,32,32z" />
    
    <!-- Gear for operations -->
    <path d="M32,18c-0.6,0-1.1,0-1.7,0.1l-0.5-2.5c-0.1-0.3-0.3-0.6-0.6-0.6h-3c-0.3,0-0.6,0.2-0.6,0.5l-0.5,2.5 c-1.1,0.2-2.2,0.6-3.2,1.1l-1.8-1.8c-0.2-0.2-0.6-0.2-0.8,0l-2.1,2.1c-0.2,0.2-0.2,0.6,0,0.8l1.8,1.8c-0.5,1-0.9,2.1-1.1,3.2 l-2.5,0.5c-0.3,0.1-0.5,0.3-0.5,0.6v3c0,0.3,0.2,0.6,0.5,0.6l2.5,0.5c0.2,1.1,0.6,2.2,1.1,3.2l-1.8,1.8c-0.2,0.2-0.2,0.6,0,0.8 l2.1,2.1c0.2,0.2,0.6,0.2,0.8,0l1.8-1.8c1,0.5,2.1,0.9,3.2,1.1l0.5,2.5c0.1,0.3,0.3,0.5,0.6,0.5h3c0.3,0,0.6-0.2,0.6-0.5l0.5-2.5 c1.1-0.2,2.2-0.6,3.2-1.1l1.8,1.8c0.2,0.2,0.6,0.2,0.8,0l2.1-2.1c0.2-0.2,0.2-0.6,0-0.8l-1.8-1.8c0.5-1,0.9-2.1,1.1-3.2l2.5-0.5 c0.3-0.1,0.5-0.3,0.5-0.6v-3c0-0.3-0.2-0.6-0.5-0.6l-2.5-0.5c-0.2-1.1-0.6-2.2-1.1-3.2l1.8-1.8c0.2-0.2,0.2-0.6,0-0.8l-2.1-2.1 c-0.2-0.2-0.6-0.2-0.8,0l-1.8,1.8c-1-0.5-2.1-0.9-3.2-1.1l-0.5-2.5c-0.1-0.3-0.3-0.5-0.6-0.5h-1.3C33.1,18,32.6,18,32,18z M32,24 c4.4,0,8,3.6,8,8s-3.6,8-8,8s-8-3.6-8-8S27.6,24,32,24z" />
  </g>
</svg>